{"title":"Almighty.Thor.2011.DvDRip.XviD.Ac3.Feel-Free","uid":6389727,"size":978515034,"categoryP":"video","categoryS":"movies","magnet":"?xt=urn:btih:eda39623092cf359e43e805ea17ebab124ed0ea4&amp;dn=Almighty.Thor.2011.DvDRip.XviD.Ac3.Feel-Free&amp;tr=udp%3A%2F%2Ftracker.openbittorrent.com%3A80&amp;tr=udp%3A%2F%2Fopen.demonii.com%3A1337&amp;tr=udp%3A%2F%2Ftracker.coppersurfer.tk%3A6969&amp;tr=udp%3A%2F%2Fexodus.desync.com%3A6969","seeders":0,"leechers":1,"uploader":"hiest","files":-1,"time":1305316446,"description":" ######## ######## ######## ##          ######## ########  ######## ######## \n ##       ##       ##       ##          ##       ##     ## ##       ##       \n ##       ##       ##       ##          ##       ##     ## ##       ##       \n ######   ######   ######   ##          ######   ########  ######   ######   \n ##       ##       ##       ##          ##       ##   ##   ##       ##       \n ##       ##       ##       ##          ##       ##    ##  ##       ##       \n ##       ######## ######## ########    ##       ##     ## ######## ########\n\n Genre:Fantasy \n Language:English\n IMDb:\n &lt;a href=&quot; http://www.imdb.com/title/tt1792794/&quot; rel=&quot;nofollow&quot; target=&quot;_NEW&quot;&gt; http://www.imdb.com/title/tt1792794/&lt;/a&gt;\n Source:DVD\n Subtitles:Romana\n\n Format : AVI\n Format/Info : Audio Video Interleave\n File size : 932 MiB\n Duration : 1h 32mn\n Overall bit rate : 1 415 Kbps\n\n Video\n ID : 0\n Format : MPEG-4 Visual\n Format profile : Advanced Simple@L5\n Format settings, BVOP : Yes\n Format settings, QPel : No\n Format settings, GMC : No warppoints\n Format settings, Matrix : Default (H.263)\n Muxing mode : Packed bitstream\n Codec ID : XVID\n Codec ID/Hint : XviD\n Duration : 1h 32mn\n Bit rate : 958 Kbps\n Width : 720 pixels\n Height : 304 pixels\n Display aspect ratio : 2.35:1\n Frame rate : 23.976 fps\n Color space : YUV\n Chroma subsampling : 4:2:0\n Bit depth : 8 bits\n Scan type : Progressive\n Bits/(Pixel*Frame) : 0.183\n Stream size : 631 MiB (68%)\n Writing library : XviD 1.2.1 (UTC 2008-12-04)\n\n Audio\n ID : 1\n Format : AC-3\n Format/Info : Audio Coding 3\n Mode extension : CM (complete main)\n Codec ID : 2000\n Duration : 1h 32mn\n Bit rate mode : Constant\n Bit rate : 448 Kbps\n Channel(s) : 6 channels\n Channel positions : Front: L C R, Side: L R, LFE\n Sampling rate : 48.0 KHz\n Bit depth : 16 bits\n Stream size : 295 MiB (32%)\n Alignment : Split accross interleaves\n Interleave, duration : 42 ms (1.00 video frame)\n Interleave, preload duration : 500 ms\n\n\n Plot:\n When the demon god Loki (Richard Grieco) destroys the fortress\n of Valhalla and steals the Hammer of Invincibility, only the young hero\n Thor (Cody Deal) can protect Earth from Armageddon\n\n ######## ######## ######## ##          ######## ########  ######## ######## \n ##       ##       ##       ##          ##       ##     ## ##       ##       \n ##       ##       ##       ##          ##       ##     ## ##       ##       \n ######   ######   ######   ##          ######   ########  ######   ######   \n ##       ##       ##       ##          ##       ##   ##   ##       ##       \n ##       ##       ##       ##          ##       ##    ##  ##       ##       \n ##       ######## ######## ########    ##       ##     ## ######## ########","torrent":{"xt":"urn:btih:eda39623092cf359e43e805ea17ebab124ed0ea4","amp;dn":"Almighty.Thor.2011.DvDRip.XviD.Ac3.Feel-Free","amp;tr":["udp%3A%2F%2Ftracker.openbittorrent.com%3A80","udp%3A%2F%2Fopen.demonii.com%3A1337","udp%3A%2F%2Ftracker.coppersurfer.tk%3A6969","udp%3A%2F%2Fexodus.desync.com%3A6969"],"infoHash":"eda39623092cf359e43e805ea17ebab124ed0ea4","infoHashBuffer":{"type":"Buffer","data":[237,163,150,35,9,44,243,89,228,62,128,94,161,126,186,177,36,237,14,164]},"announce":[],"urlList":[]}}